<svg xmlns="http://www.w3.org/2000/svg" viewBox="0 0 128 128" role="img" aria-labelledby="bitecraft-favicon-title bitecraft-favicon-desc">
  <title id="bitecraft-favicon-title">BiteCraft favicon</title>
  <desc id="bitecraft-favicon-desc">A warm gradient cooking badge with a stylized B inside a plate.</desc>
  <defs>
    <linearGradient id="bg" x1="18" y1="16" x2="110" y2="112" gradientUnits="userSpaceOnUse">
      <stop offset="0" stop-color="#f59e0b" />
      <stop offset="0.55" stop-color="#ea580c" />
      <stop offset="1" stop-color="#c2410c" />
    </linearGradient>
    <linearGradient id="letter" x1="45" y1="32" x2="86" y2="96" gradientUnits="userSpaceOnUse">
      <stop offset="0" stop-color="#fff4d6" />
      <stop offset="1" stop-color="#ffe7b3" />
    </linearGradient>
  </defs>
  <rect x="10" y="10" width="108" height="108" rx="30" fill="url(#bg)" />
  <circle cx="64" cy="64" r="34" fill="none" stroke="#fff4d6" stroke-width="6" opacity="0.95" />
  <path d="M84 40c8 0 14 5.8 14 13.4 0 5.5-3.6 10.1-9 12 5.9 1.7 10 6.8 10 13.1C99 87.1 92 94 82.7 94H48c-2.2 0-4-1.8-4-4V38c0-2.2 1.8-4 4-4h34.3ZM56 50v11.1h24.2c3.1 0 5.8-2.5 5.8-5.6s-2.7-5.5-5.8-5.5H56Zm0 22v12h25.8c3.1 0 5.7-2.6 5.7-6s-2.6-6-5.7-6H56Z" fill="url(#letter)" />
  <circle cx="92" cy="36" r="8" fill="#fef3c7" />
  <circle cx="95.5" cy="33.5" r="2.2" fill="#f59e0b" opacity="0.9" />
</svg>
